{"title":"Ram Chahe Leela - Ramleela HD 1080p -AshishRocks-","uid":9096865,"size":70820713,"categoryP":"video","categoryS":"music_videos","magnet":"?xt=urn:btih:cea04d4797c2fd8964d239f8039adc8362786cb0&amp;dn=Ram+Chahe+Leela+-+Ramleela+HD+1080p+-AshishRocks-&amp;tr=udp%3A%2F%2Ftracker.openbittorrent.com%3A80&amp;tr=udp%3A%2F%2Fopen.demonii.com%3A1337&amp;tr=udp%3A%2F%2Ftracker.coppersurfer.tk%3A6969&amp;tr=udp%3A%2F%2Fexodus.desync.com%3A6969","seeders":4,"leechers":0,"uploader":"ashish.p","files":1,"time":1382662520,"description":"Presenting the exclusive item number from Ram-leela, 'Ram Chahe Leela' featuring the mesmerizing Priyanka Chopra.The song is sung by Bhoomi Trivedi. \n\nMusic: Sanjay Leela Bhansali\nLyrics: Siddharth-Garima\n\nGeneral\nComplete name : E:New folderRam Chahe Leela - Ram-leela HD 1080p -AshishRocks-.mp4\nFormat : MPEG-4\nFormat profile : Base Media\nCodec ID : isom\nFile size : 67.5 MiB\nDuration : 2mn 14s\nOverall bit rate mode : Variable\nOverall bit rate : 4 203 Kbps\nEncoded date : UTC 2013-10-25 10:11:13\nTagged date : UTC 2013-10-25 10:11:13\nWriting application : Lavf51.12.1\nVideo #1\nID : 1\nFormat : AVC\nFormat/Info : Advanced Video Codec\nFormat profile : &lt;a class=&quot;__cf_email__&quot; href=&quot;/cdn-cgi/l/email-protection&quot; data-cfemail=&quot;541c3d333c1418607a64&quot;&gt;[email&amp;#160;protected]&lt;/a&gt;&lt;script cf-hash='f9e31' type=&quot;text/javascript&quot;&gt;\n/* &lt;![CDATA[ */!function(){try{var t=&quot;currentScript&quot;in document?document.currentScript:function(){for(var t=document.getElementsByTagName(&quot;script&quot;),e=t.length;e--;)if(t[e].getAttribute(&quot;cf-hash&quot;))return t[e]}();if(t&amp;&amp;t.previousSibling){var e,r,n,i,c=t.previousSibling,a=c.getAttribute(&quot;data-cfemail&quot;);if(a){for(e=&quot;&quot;,r=parseInt(a.substr(0,2),16),n=2;a.length-n;n+=2)i=parseInt(a.substr(n,2),16)^r,e+=String.fromCharCode(i);e=document.createTextNode(e),c.parentNode.replaceChild(e,c)}}}catch(u){}}();/* ]]&gt; */&lt;/script&gt;\nFormat settings, CABAC : Yes\nFormat settings, ReFrames : 2 frames\nCodec ID : avc1\nCodec ID/Info : Advanced Video Coding\nDuration : 2mn 14s\nBit rate : 3 947 Kbps\nWidth : 1 920 pixels\nHeight : 1 080 pixels\nDisplay aspect ratio : 16:9\nFrame rate mode : Constant\nFrame rate : 25.000 fps\nColor space : YUV\nChroma subsampling : 4:2:0\nBit depth : 8 bits\nScan type : Progressive\nBits/(Pixel*Frame) : 0.076\nStream size : 63.4 MiB (94%)\nEncoded date : UTC 2013-10-25 10:11:13\nTagged date : UTC 2013-10-25 10:11:13\nAudio #2\nID : 2\nFormat : AAC\nFormat/Info : Advanced Audio Codec\nFormat profile : LC\nCodec ID : 40\nDuration : 2mn 13s\nBit rate mode : Variable\nBit rate : 254 Kbps\nChannel(s) : 2 channels\nChannel positions : Front: L R\nSampling rate : 44.1 KHz\nCompression mode : Lossy\nStream size : 4.04 MiB (6%)\nEncoded date : UTC 2013-10-25 10:11:13","torrent":{"xt":"urn:btih:cea04d4797c2fd8964d239f8039adc8362786cb0","amp;dn":"Ram+Chahe+Leela+-+Ramleela+HD+1080p+-AshishRocks-","amp;tr":["udp%3A%2F%2Ftracker.openbittorrent.com%3A80","udp%3A%2F%2Fopen.demonii.com%3A1337","udp%3A%2F%2Ftracker.coppersurfer.tk%3A6969","udp%3A%2F%2Fexodus.desync.com%3A6969"],"infoHash":"cea04d4797c2fd8964d239f8039adc8362786cb0","infoHashBuffer":{"type":"Buffer","data":[206,160,77,71,151,194,253,137,100,210,57,248,3,154,220,131,98,120,108,176]},"announce":[],"urlList":[]}}